<svg width="20" height="20" viewBox="0 0 20 20" fill="none" xmlns="http://www.w3.org/2000/svg">
<path fill-rule="evenodd" clip-rule="evenodd" d="M10 14C12.2091 14 14 12.2091 14 10C14 7.79086 12.2091 6 10 6C7.79086 6 6 7.79086 6 10C6 12.2091 7.79086 14 10 14Z" fill="#7334E8"/>
<path d="M7.125 5.25832L12.625 5.25832L15.375 10.0215L12.625 14.7846L7.125 14.7846L4.375 10.0215L7.125 5.25832Z" fill="#2EB9F5"/>
<path d="M7.125 3.63332C6.54444 3.63332 6.00799 3.94305 5.71771 4.44582L2.96771 9.20896C2.67743 9.71174 2.67743 10.3312 2.96771 10.834L5.71771 15.5971C6.00799 16.0999 6.54444 16.4096 7.125 16.4096L12.625 16.4096C13.2056 16.4096 13.742 16.0999 14.0323 15.5971L16.7823 10.834C17.0726 10.3312 17.0726 9.71174 16.7823 9.20896L14.0323 4.44582C13.742 3.94304 13.2056 3.63332 12.625 3.63332L7.125 3.63332Z" stroke="#2EB9F5" stroke-opacity="0.15" stroke-width="3.25" stroke-linejoin="round"/>
</svg>
